<?xml version="1.0" standalone="no"?>
<!DOCTYPE svg PUBLIC "-//W3C//DTD SVG 20010904//EN"
 "http://www.w3.org/TR/2001/REC-SVG-20010904/DTD/svg10.dtd">
<svg version="1.0" xmlns="http://www.w3.org/2000/svg"
 width="500.000000pt" height="500.000000pt" viewBox="0 0 500.000000 500.000000"
 preserveAspectRatio="xMidYMid meet">
<metadata>
Created by potrace 1.11, written by Peter Selinger 2001-2013
</metadata>
<g transform="translate(0.000000,500.000000) scale(0.100000,-0.100000)"
fill="#000000" stroke="none">
<path d="M530 2435 l0 -1355 365 0 365 0 0 449 0 450 107 64 c59 36 111 63
114 61 4 -2 125 -233 270 -514 l263 -510 413 0 413 0 -29 53 c-17 28 -205 364
-419 746 l-389 693 202 287 c436 619 638 907 642 919 4 10 -76 12 -393 10
l-397 -3 -240 -350 c-132 -192 -292 -426 -356 -520 -65 -93 -135 -199 -157
-235 l-39 -65 -3 588 -2 587 -365 0 -365 0 0 -1355z"/>
<path d="M2987 3173 c-4 -3 -7 -129 -7 -280 l0 -273 405 0 c223 0 405 -2 405
-5 0 -4 -193 -258 -430 -567 l-430 -561 0 -203 0 -204 870 0 870 0 0 275 0
275 -436 2 -436 3 416 548 416 548 -2 222 -3 222 -816 3 c-448 1 -819 -1 -822
-5z"/>
</g>
</svg>
